<svg xmlns="http://www.w3.org/2000/svg" xmlns:xlink="http://www.w3.org/1999/xlink" width="96" zoomAndPan="magnify" viewBox="0 0 72 54" height="72" preserveAspectRatio="xMidYMid meet" version="1.0"><defs><g/></defs><g fill="#ffffff" fill-opacity="1"><g transform="translate(11.53892, 37.922728)"><g><path d="M 8.457031 0.164062 C 13.140625 0.164062 15.449219 -4.390625 16.230469 -6.375 C 16.296875 -6.539062 16.328125 -6.734375 16.328125 -6.960938 C 16.328125 -7.351562 15.839844 -9.464844 15.546875 -10.375 C 15.449219 -10.667969 15.027344 -10.960938 14.667969 -10.960938 C 14.214844 -10.992188 13.628906 -11.027344 13.042969 -11.027344 C 11.546875 -11.027344 9.824219 -10.929688 9.007812 -10.796875 C 8.523438 -10.734375 8.328125 -10.570312 8.328125 -10.148438 C 8.328125 -9.628906 8.390625 -8.8125 8.488281 -8.132812 C 8.523438 -7.804688 8.8125 -7.578125 9.203125 -7.578125 C 9.855469 -7.578125 10.992188 -7.644531 12.097656 -7.644531 C 12.230469 -7.644531 12.523438 -7.609375 12.523438 -7.382812 C 12.523438 -7.253906 12.457031 -7.15625 12.457031 -7.15625 C 11.320312 -5.007812 9.53125 -3.382812 7.773438 -3.382812 C 6.375 -3.382812 4.78125 -4.421875 4.78125 -8.035156 C 4.78125 -13.304688 7.871094 -18.605469 11.222656 -18.605469 C 12.554688 -18.605469 12.945312 -17.5625 12.945312 -16.621094 C 12.945312 -15.96875 12.523438 -14.667969 12.523438 -14.410156 C 12.523438 -14.050781 12.683594 -13.824219 13.042969 -13.824219 C 13.238281 -13.824219 15.253906 -13.855469 15.480469 -13.886719 C 15.839844 -13.921875 16.199219 -14.148438 16.296875 -14.441406 C 16.457031 -14.898438 16.976562 -16.132812 16.976562 -17.109375 C 16.945312 -19.253906 13.660156 -20.945312 11.1875 -21.628906 C 10.601562 -21.792969 9.984375 -21.921875 9.464844 -21.953125 C 4.714844 -21.824219 0.78125 -14.246094 0.78125 -8.292969 C 0.78125 -6.40625 1.367188 -4.519531 2.113281 -3.449219 C 3.546875 -1.398438 6.472656 0.164062 8.457031 0.164062 Z M 8.457031 0.164062 "/></g></g></g><g fill="#ffffff" fill-opacity="1"><g transform="translate(28.739408, 37.922728)"><g><path d="M 6.796875 -3.121094 C 4.617188 -3.121094 4.195312 -4.683594 3.839844 -6.441406 C 3.804688 -6.667969 3.707031 -6.992188 3.253906 -6.992188 C 2.925781 -6.960938 1.496094 -6.699219 0.84375 -6.441406 C 0.519531 -6.308594 0.261719 -6.148438 0.261719 -5.722656 C 0.261719 -5.59375 0.292969 -5.300781 0.292969 -5.300781 C 0.554688 -3.253906 1.136719 -2.375 1.917969 -1.691406 C 3.316406 -0.457031 5.660156 0.195312 7.1875 0.195312 C 10.375 0.195312 13.984375 -2.535156 13.984375 -5.757812 C 13.984375 -10.863281 5.953125 -11.285156 5.953125 -14.636719 C 5.953125 -16.066406 7.382812 -18.375 9.335938 -18.375 C 10.214844 -18.375 11.1875 -17.921875 11.1875 -16.394531 C 11.1875 -15.382812 10.734375 -13.886719 10.734375 -13.5625 C 10.734375 -13.367188 10.929688 -13.207031 11.1875 -13.207031 C 11.742188 -13.207031 13.433594 -13.207031 13.660156 -13.238281 C 14.019531 -13.238281 14.179688 -13.335938 14.441406 -13.789062 C 14.863281 -14.539062 15.417969 -16.132812 15.417969 -17.074219 C 15.417969 -19.96875 10.019531 -21.597656 8 -21.597656 C 4.878906 -21.597656 1.789062 -17.628906 1.789062 -14.179688 C 1.789062 -8.652344 9.757812 -8.261719 9.757812 -5.171875 C 9.757812 -4.128906 8.554688 -3.121094 6.796875 -3.121094 Z M 6.796875 -3.121094 "/></g></g></g><g fill="#ffffff" fill-opacity="1"><g transform="translate(43.826412, 37.922728)"><g><path d="M 9.496094 -21.824219 C 7.578125 -21.824219 4.714844 -21.140625 3.253906 -20.457031 C 2.992188 -20.359375 2.828125 -20.101562 2.828125 -19.871094 C 2.828125 -19.515625 3.121094 -18.636719 3.121094 -18.214844 C 3.121094 -18.019531 3.089844 -17.824219 3.089844 -17.824219 C 2.667969 -16.359375 0.617188 -6.960938 0.617188 -3.902344 C 0.617188 -3.609375 0.683594 -3.351562 0.878906 -3.089844 C 1.820312 -1.855469 2.632812 -0.84375 4.066406 -0.164062 C 4.554688 0.0664062 6.277344 0.0664062 6.636719 0.0664062 C 11.710938 0.0664062 15.382812 -3.1875 15.382812 -5.59375 C 15.382812 -7.058594 14.246094 -8.945312 12.945312 -9.984375 C 12.816406 -10.082031 12.78125 -10.179688 12.78125 -10.277344 C 12.78125 -10.40625 12.847656 -10.503906 13.011719 -10.570312 C 15.1875 -11.613281 16.816406 -13.207031 16.816406 -15.449219 C 16.816406 -17.660156 13.691406 -21.824219 9.496094 -21.824219 Z M 4.488281 -4.421875 C 4.683594 -5.855469 4.945312 -7.285156 5.203125 -8.652344 C 5.269531 -8.976562 5.5625 -9.203125 5.886719 -9.203125 C 7.027344 -9.238281 7.9375 -9.238281 8.097656 -9.238281 C 8.910156 -9.238281 11.417969 -9.007812 11.417969 -7.15625 C 11.417969 -4.78125 8.132812 -3.511719 5.496094 -3.511719 C 5.171875 -3.511719 4.878906 -3.546875 4.878906 -3.546875 C 4.585938 -3.578125 4.457031 -3.773438 4.457031 -4.03125 C 4.457031 -4.164062 4.488281 -4.421875 4.488281 -4.421875 Z M 7.21875 -17.855469 C 7.285156 -18.117188 7.546875 -18.441406 7.871094 -18.507812 C 8.230469 -18.570312 8.8125 -18.605469 9.238281 -18.605469 C 10.894531 -18.605469 13.074219 -17.988281 13.074219 -16.035156 C 13.074219 -13.5625 8.878906 -11.902344 6.34375 -11.902344 C 6.082031 -11.902344 5.917969 -12.066406 5.917969 -12.292969 C 5.917969 -12.523438 6.863281 -16.652344 7.21875 -17.855469 Z M 7.21875 -17.855469 "/></g></g></g></svg>